<svg width="275" height="286" viewBox="0 0 275 286" fill="none" xmlns="http://www.w3.org/2000/svg">
<path d="M22.9167 171.6H45.8333V194.48H22.9167V171.6Z" fill="black"/>
<path d="M22.9167 240.24H45.8333V263.12H22.9167V240.24Z" fill="black"/>
<path fill-rule="evenodd" clip-rule="evenodd" d="M160.417 0H137.5V11.44H114.583V22.88V34.32V45.76H137.5V57.2V80.08V102.96V125.84H160.417V102.96V80.08V57.2H183.333H206.25H229.167V80.08V102.96V125.84V148.72V171.6V194.48H217.708V217.36H206.25V240.24H229.167V217.36H240.625V194.48H252.083V171.6V148.72V125.84V102.96V80.08V57.2V45.76H275V34.32V22.88V11.44H252.083V0H229.167H206.25H183.333H160.417ZM137.5 22.88H160.417H183.333H206.25H229.167H252.083V34.32H229.167H206.25H183.333H160.417H137.5V22.88Z" fill="black"/>
<path d="M206.25 240.24H183.333H160.417V263.12H183.333H206.25V240.24Z" fill="black"/>
<path d="M68.75 263.12H45.8333V286H68.75H91.6667H114.583H137.5H160.417V263.12H137.5H114.583H91.6667H68.75Z" fill="black"/>
<path d="M22.9167 194.48H0V217.36V240.24H22.9167V217.36V194.48Z" fill="black"/>
<path d="M68.75 148.72H45.8333V171.6H68.75H91.6667V160.16H114.583V148.72H137.5V125.84H114.583V137.28H91.6667V148.72H68.75Z" fill="black"/>
<path d="M68.75 171.6H45.8333V194.48H22.9167V217.36V240.24H45.8333V263.12H68.75H91.6667H114.583H137.5H160.417V240.24H183.333H206.25V217.36H217.708V194.48H229.167V171.6V148.72V125.84V102.96V80.08V57.2H206.25H183.333H160.417V80.08V102.96V125.84H137.5V148.72H114.583V160.16H91.6667V171.6H68.75Z" fill="#FFE600"/>
<path d="M160.417 22.88H137.5V34.32H160.417H183.333H206.25H229.167H252.083V22.88H229.167H206.25H183.333H160.417Z" fill="#FFE600"/>
<path d="M80.2083 188.32V211.2H91.6666V222.64H103.125H114.583L114.583 211.2H126.042V188.32H114.583V176.88H103.125H91.6666V188.32H80.2083Z" fill="black"/>
<path d="M171.875 111.68V134.56H183.333V146H194.792H206.25V134.56H217.708V111.68H206.25V100.24H194.792H183.333V111.68H171.875Z" fill="black"/>
<path d="M153.25 196.44V219.32H164.708V230.76H176.167H187.625V219.32H199.083V196.44H187.625V185H176.167H164.708V196.44H153.25Z" fill="black"/>
<path d="M141.083 154H164V176.88H141.083V154Z" fill="black"/>
<path d="M123 230.76H145.917V253.64H123V230.76Z" fill="black"/>
<path d="M54.5 222.64H77.4167V245.52H54.5V222.64Z" fill="black"/>
<path d="M196.5 60H219.417V82.88H196.5V60Z" fill="black"/>
</svg>
