<svg width="214" height="218" viewBox="0 0 214 218" fill="none" xmlns="http://www.w3.org/2000/svg">
<rect width="186.653" height="186.653" fill="#FF4AAE"/>
<path d="M79.0973 107.422L91.8745 108.414L90.8823 121.191L78.1051 120.199L79.0973 107.422Z" fill="black"/>
<path d="M74.1363 171.308L86.9135 172.3L85.9213 185.077L73.1441 184.085L74.1363 171.308Z" fill="black"/>
<path d="M105.148 103.018L117.925 104.01L116.933 116.787L104.156 115.795L105.148 103.018Z" fill="black"/>
<path d="M99.6907 173.292L112.468 174.285L111.476 187.062L98.6985 186.07L99.6907 173.292Z" fill="black"/>
<path d="M136.655 28.3389L149.433 29.3311L148.44 42.1083L135.663 41.1161L136.655 28.3389Z" fill="black"/>
<path d="M135.167 47.5047L147.944 48.4969L146.952 61.2741L134.175 60.2819L135.167 47.5047Z" fill="black"/>
<path d="M134.175 60.2819L146.952 61.2741L145.96 74.0513L133.183 73.0591L134.175 60.2819Z" fill="black"/>
<path d="M133.183 73.0591L145.96 74.0513L144.968 86.8286L132.19 85.8364L133.183 73.0591Z" fill="black"/>
<path d="M132.19 85.8364L144.968 86.8286L143.975 99.6057L131.198 98.6135L132.19 85.8364Z" fill="black"/>
<path d="M118.421 97.6213L131.198 98.6135L130.206 111.391L117.429 110.399L118.421 97.6213Z" fill="black"/>
<path d="M125.245 175.277L138.022 176.269L137.03 189.046L124.253 188.054L125.245 175.277Z" fill="black"/>
<path d="M160.721 49.4891L173.499 50.4813L172.507 63.2585L159.729 62.2663L160.721 49.4891Z" fill="black"/>
<path d="M151.792 164.484L164.569 165.476L163.577 178.253L150.799 177.261L151.792 164.484Z" fill="black"/>
<path d="M187.764 32.3077L200.541 33.2999L199.549 46.0771L186.772 45.0849L187.764 32.3077Z" fill="black"/>
<path d="M162.21 30.3233L174.987 31.3155L173.995 44.0927L161.218 43.1005L162.21 30.3233Z" fill="black"/>
<path d="M174.987 31.3155L187.764 32.3077L186.772 45.0849L173.995 44.0927L174.987 31.3155Z" fill="black"/>
<path d="M149.433 29.3311L162.21 30.3233L161.218 43.1005L148.44 42.1083L149.433 29.3311Z" fill="black"/>
<path d="M186.276 51.4735L199.053 52.4657L198.061 65.2429L185.284 64.2507L186.276 51.4735Z" fill="black"/>
<path d="M185.284 64.2507L198.061 65.2429L197.069 78.0201L184.291 77.0279L185.284 64.2507Z" fill="black"/>
<path d="M184.291 77.0279L197.069 78.0201L196.077 90.7974L183.299 89.8051L184.291 77.0279Z" fill="black"/>
<path d="M183.299 89.8051L196.077 90.7974L195.084 103.575L182.307 102.582L183.299 89.8051Z" fill="black"/>
<path d="M182.307 102.582L195.084 103.575L194.092 116.352L181.315 115.36L182.307 102.582Z" fill="black"/>
<path d="M181.315 115.36L194.092 116.352L193.1 129.129L180.323 128.137L181.315 115.36Z" fill="black"/>
<path d="M180.323 128.137L193.1 129.129L192.108 141.906L179.33 140.914L180.323 128.137Z" fill="black"/>
<path d="M79.0973 107.422L91.8745 108.414L90.8823 121.191L78.1051 120.199L79.0973 107.422Z" fill="black"/>
<path d="M91.8745 108.414L104.652 109.406L103.659 122.184L90.8823 121.191L91.8745 108.414Z" fill="black"/>
<path d="M86.9135 172.3L99.6907 173.292L98.6985 186.07L85.9213 185.077L86.9135 172.3Z" fill="black"/>
<path d="M122.886 40.1239L135.663 41.1161L134.671 53.8933L121.894 52.9011L122.886 40.1239Z" fill="black"/>
<path d="M112.468 174.285L125.245 175.277L124.253 188.054L111.476 187.062L112.468 174.285Z" fill="black"/>
<path d="M147.944 48.4969L160.721 49.4891L159.729 62.2663L146.952 61.2741L147.944 48.4969Z" fill="black"/>
<path d="M139.014 163.492L151.792 164.484L150.799 177.261L138.022 176.269L139.014 163.492Z" fill="black"/>
<path d="M65.3279 119.207L78.1051 120.199L77.1129 132.976L64.3357 131.984L65.3279 119.207Z" fill="black"/>
<path d="M62.3513 157.539L75.1285 158.531L74.1363 171.308L61.3591 170.316L62.3513 157.539Z" fill="black"/>
<path d="M51.5585 130.992L64.3357 131.984L63.3435 144.761L50.5663 143.769L51.5585 130.992Z" fill="black"/>
<path d="M50.5663 143.769L63.3435 144.761L62.3513 157.539L49.5741 156.546L50.5663 143.769Z" fill="black"/>
<path d="M173.499 50.4813L186.276 51.4735L185.284 64.2507L172.507 63.2585L173.499 50.4813Z" fill="black"/>
<path d="M172.942 140.418L185.719 141.41L184.727 154.187L171.95 153.195L172.942 140.418Z" fill="black"/>
<path d="M165.561 152.699L178.338 153.691L177.346 166.468L164.569 165.476L165.561 152.699Z" fill="black"/>
<path d="M200.045 39.6885L212.823 40.6807L211.83 53.4579L199.053 52.4657L200.045 39.6885Z" fill="black"/>
<path d="M123.382 33.7353L136.159 34.7275L135.167 47.5047L122.39 46.5125L123.382 33.7353Z" fill="black"/>
<path d="M199.549 46.0771L212.326 47.0693L211.334 59.8465L198.557 58.8543L199.549 46.0771Z" fill="black"/>
<path d="M148.44 42.1083L135.663 41.1161L135.167 47.5047L147.944 48.4969L160.721 49.4891L173.499 50.4813L186.276 51.4735L199.053 52.4657L199.549 46.0771L186.772 45.0849L173.995 44.0927L161.218 43.1005L148.44 42.1083Z" fill="white"/>
<path d="M90.8823 121.191L78.1051 120.199L77.1129 132.976L64.3357 131.984L63.3435 144.761L62.3513 157.539L75.1285 158.531L74.1363 171.308L86.9135 172.3L99.6907 173.292L112.468 174.285L125.245 175.277L138.022 176.269L139.014 163.492L151.792 164.484L164.569 165.476L165.561 152.699L171.95 153.195L172.942 140.418L179.33 140.914L180.323 128.137L181.315 115.36L182.307 102.582L183.299 89.8051L184.291 77.0279L185.284 64.2507L172.507 63.2585L159.729 62.2663L146.952 61.2741L145.96 74.0513L144.968 86.8286L143.975 99.6057L131.198 98.6135L130.206 111.391L117.429 110.399L116.933 116.787L104.156 115.795L103.659 122.184L90.8823 121.191Z" fill="white"/>
</svg>
