<svg width="41" height="42" viewBox="0 0 41 42" fill="none" xmlns="http://www.w3.org/2000/svg">
<path d="M3.36 25.2H6.72V28.56H3.36V25.2Z" fill="black"/>
<path d="M3.36 35.28H6.72V38.64H3.36V35.28Z" fill="black"/>
<path d="M10.08 25.2H6.72V28.56H3.36V31.92V35.28H6.72V38.64H10.08H13.44H16.8H20.16H23.52V35.28H26.88H30.24V31.92H31.92V28.56H33.6V25.2V21.84V18.48V15.12V11.76V8.4H30.24H26.88H23.52V11.76V15.12V18.48H20.16V21.84H16.8V23.52H13.44V25.2H10.08Z" fill="white"/>
<path fill-rule="evenodd" clip-rule="evenodd" d="M23.52 0H20.16V1.68H16.8V3.36V5.04V6.72H20.16V8.4V11.76V15.12V18.48H23.52V15.12V11.76V8.4H26.88H30.24H33.6V11.76V15.12V18.48V21.84V25.2V28.56H31.92V31.92H30.24V35.28H33.6V31.92H35.28V28.56H36.96V25.2V21.84V18.48V15.12V11.76V8.4V6.72H40.32V5.04V3.36V1.68H36.96V0H33.6H30.24H26.88H23.52ZM20.16 3.36H23.52H26.88H30.24H33.6H36.96V5.04H33.6H30.24H26.88H23.52H20.16V3.36Z" fill="black"/>
<path d="M30.24 35.28H26.88H23.52V38.64H26.88H30.24V35.28Z" fill="black"/>
<path d="M10.08 38.64H6.72V42H10.08H13.44H16.8H20.16H23.52V38.64H20.16H16.8H13.44H10.08Z" fill="black"/>
<path d="M3.36 28.56H0V31.92V35.28H3.36V31.92V28.56Z" fill="black"/>
<path d="M10.08 21.84H6.72V25.2H10.08H13.44V23.52H16.8V21.84H20.16V18.48H16.8V20.16H13.44V21.84H10.08Z" fill="black"/>
<path d="M23.52 3.36H20.16V5.04H23.52H26.88H30.24H33.6H36.96V3.36H33.6H30.24H26.88H23.52Z" fill="white"/>
</svg>
